<?xml version="1.0" standalone="no"?><!DOCTYPE svg PUBLIC "-//W3C//DTD SVG 1.1//EN" "http://www.w3.org/Graphics/SVG/1.1/DTD/svg11.dtd"><svg t="1729328307810" class="icon" viewBox="0 0 1024 1024" version="1.1" xmlns="http://www.w3.org/2000/svg" p-id="6294" xmlns:xlink="http://www.w3.org/1999/xlink" width="200" height="200"><path d="M887.466667 369.777778c-62.577778-19.911111-136.533333 36.977778-159.288889 125.155555s8.533333 176.355556 71.111111 196.266667 136.533333-36.977778 159.288889-125.155556c25.6-88.177778-8.533333-176.355556-71.111111-196.266666z" fill="#88664D" p-id="6295"></path><path d="M921.6 554.666667c-17.066667 62.577778-68.266667 105.244444-110.933333 91.022222s-65.422222-76.8-48.355556-139.377778c17.066667-62.577778 68.266667-105.244444 110.933333-91.022222 45.511111 14.222222 65.422222 76.8 48.355556 139.377778z" fill="#FDE7AA" p-id="6296"></path><path d="M136.533333 369.777778c62.577778-19.911111 136.533333 36.977778 159.288889 125.155555s-8.533333 176.355556-71.111111 196.266667-136.533333-36.977778-159.288889-125.155556 8.533333-176.355556 71.111111-196.266666z" fill="#88664D" p-id="6297"></path><path d="M102.4 554.666667c17.066667 62.577778 68.266667 105.244444 110.933333 91.022222s65.422222-76.8 48.355556-139.377778c-17.066667-62.577778-68.266667-105.244444-110.933333-91.022222S85.333333 492.088889 102.4 554.666667z" fill="#FDE7AA" p-id="6298"></path><path d="M847.644444 455.111111c0-130.844444-93.866667-244.622222-227.555555-284.444444 17.066667-8.533333 34.133333-14.222222 54.044444-17.066667-31.288889-17.066667-68.266667-14.222222-96.711111 5.688889 22.755556-22.755556 54.044444-36.977778 88.177778-39.822222-48.355556-22.755556-99.555556-8.533333-128 25.6 25.6-42.666667 71.111111-71.111111 125.155556-73.955556-73.955556-36.977778-153.6 2.844444-176.355556 73.955556-22.755556-34.133333-68.266667-51.2-110.933333-31.288889 28.444444 2.844444 54.044444 14.222222 73.955555 34.133333C426.666667 133.688889 398.222222 128 369.777778 142.222222c19.911111 0 39.822222 8.533333 54.044444 19.911111C278.755556 199.111111 176.355556 315.733333 176.355556 455.111111c0 56.888889 19.911111 110.933333 51.2 159.288889-8.533333 25.6-14.222222 54.044444-14.222223 85.333333 0 147.911111 133.688889 270.222222 301.511111 270.222223s301.511111-119.466667 301.511112-270.222223c0-28.444444-5.688889-56.888889-14.222223-85.333333 28.444444-48.355556 45.511111-102.4 45.511111-159.288889z" fill="#88664D" p-id="6299"></path><path d="M725.333333 494.933333c-2.844444 25.6-14.222222 45.511111-28.444444 65.422223-25.6 28.444444-39.822222 62.577778-39.822222 102.4 0 19.911111 2.844444 36.977778 11.377777 54.044444 2.844444 8.533333 5.688889 17.066667 5.688889 28.444444 0 51.2-39.822222 93.866667-91.022222 93.866667-11.377778 0-22.755556-2.844444-34.133333-5.688889-22.755556-8.533333-45.511111-8.533333-68.266667 0-11.377778 5.688889-22.755556 5.688889-34.133333 5.688889-51.2 0-91.022222-42.666667-91.022222-93.866667 0-8.533333 2.844444-19.911111 5.688888-28.444444 5.688889-17.066667 11.377778-34.133333 11.377778-54.044444v-2.844445c0-36.977778-14.222222-73.955556-39.822222-102.4-14.222222-17.066667-25.6-39.822222-28.444444-65.422222-8.533333-73.955556 48.355556-133.688889 119.466666-133.688889 8.533333 0 17.066667 0 22.755556 2.844444 45.511111 8.533333 91.022222 8.533333 136.533333 0 8.533333-2.844444 17.066667-2.844444 22.755556-2.844444 68.266667 2.844444 125.155556 65.422222 119.466666 136.533333zM580.266667 859.022222c-14.222222 0-28.444444-2.844444-42.666667-8.533333-8.533333-2.844444-17.066667-5.688889-25.6-5.688889-8.533333 0-17.066667 2.844444-25.6 5.688889-14.222222 5.688889-28.444444 8.533333-42.666667 8.533333-22.755556 0-45.511111-8.533333-65.422222-19.911111 19.911111 48.355556 73.955556 82.488889 133.688889 82.488889s113.777778-34.133333 133.688889-82.488889c-17.066667 11.377778-39.822222 19.911111-65.422222 19.911111z" fill="#FDE7AA" p-id="6300"></path><path d="M600.177778 731.022222c8.533333 8.533333 8.533333 19.911111 0 28.444445-8.533333 8.533333-19.911111 8.533333-28.444445 0-8.533333-8.533333-31.288889-42.666667-22.755555-51.2s42.666667 14.222222 51.2 22.755555zM423.822222 731.022222c-8.533333 8.533333-8.533333 19.911111 0 28.444445s19.911111 8.533333 28.444445 0c8.533333-8.533333 31.288889-42.666667 22.755555-51.2-8.533333-8.533333-42.666667 14.222222-51.2 22.755555z" fill="#3E4347" p-id="6301"></path><path d="M671.288889 483.555556c0 28.444444-22.755556 51.2-51.2 51.2S568.888889 512 568.888889 483.555556s22.755556-51.2 51.2-51.2 51.2 22.755556 51.2 51.2z" fill="#3E4347" p-id="6302"></path><path d="M597.333333 463.644444m-11.377777 0a11.377778 11.377778 0 1 0 22.755555 0 11.377778 11.377778 0 1 0-22.755555 0Z" fill="#FFFFFF" p-id="6303"></path><path d="M457.955556 483.555556c0 28.444444-22.755556 51.2-51.2 51.2s-51.2-22.755556-51.2-51.2 22.755556-51.2 51.2-51.2 51.2 22.755556 51.2 51.2z" fill="#3E4347" p-id="6304"></path><path d="M384 463.644444m-11.377778 0a11.377778 11.377778 0 1 0 22.755556 0 11.377778 11.377778 0 1 0-22.755556 0Z" fill="#FFFFFF" p-id="6305"></path></svg>